# xmcd CD database file
#
# Track frame offsets:
#	150
#	12390
#	34659
#	55633
#	79574
#	98549
#	116755
#	138407
#	160938
#	183345
#	204285
#	227000
#	240871
#	263771
#	279975
#
# Disc length: 4070 seconds
#
# Revision: 0
# Processed by: cddbd v1.5.2PL0 Copyright (c) Steve Scherf et al.
# Submitted via: CDex 1.51
#
DISCID=b10fe40f
DTITLE=Twelve Girls Band - Eastern Energy
DYEAR=2004
DGENRE=New Age
TTITLE0=Miracle
TTITLE1=Clocks
TTITLE2=Liu San Jie
TTITLE3=Earthly Stars (Unsung Heroes)
TTITLE4=Hepbeat
TTITLE5=Freedom
TTITLE6=Shangri-la
TTITLE7=Reel Around the Sun
TTITLE8=A Girl's Dream
TTITLE9=Forbidden City
TTITLE10=The Great Valley
TTITLE11=Alumahan
TTITLE12=Mountain and Rivers
TTITLE13=Only Time
TTITLE14=New Classicism
EXTD=YEAR: 2004
EXTT0=
EXTT1=
EXTT2=
EXTT3=
EXTT4=
EXTT5=
EXTT6=
EXTT7=
EXTT8=
EXTT9=
EXTT10=
EXTT11=
EXTT12=
EXTT13=
EXTT14=
PLAYORDER=
